<mxfile host="app.diagrams.net" modified="2021-04-20T00:50:56.737Z" agent="5.0 (Windows NT 10.0; Win64; x64) AppleWebKit/537.36 (KHTML, like Gecko) Chrome/90.0.4430.72 Safari/537.36" etag="AOkQ86MpsUeVOhTo7njj" version="13.9.2" type="github">
  <diagram id="QiVoziARZaSNwG7O52th" name="Page-1">
    <mxGraphModel dx="1038" dy="547" grid="1" gridSize="10" guides="1" tooltips="1" connect="1" arrows="1" fold="1" page="1" pageScale="1" pageWidth="850" pageHeight="1100" math="0" shadow="0">
      <root>
        <mxCell id="0" />
        <mxCell id="1" parent="0" />
        <mxCell id="Y4ObP2GYuTZHjgmCxFM4-5" value="" style="ellipse;whiteSpace=wrap;html=1;" parent="1" vertex="1">
          <mxGeometry x="10" y="290" width="430" height="220" as="geometry" />
        </mxCell>
        <mxCell id="Y4ObP2GYuTZHjgmCxFM4-1" value="Us" style="shape=umlActor;verticalLabelPosition=bottom;verticalAlign=top;html=1;outlineConnect=0;" parent="1" vertex="1">
          <mxGeometry x="280" y="370" width="30" height="60" as="geometry" />
        </mxCell>
        <mxCell id="Y4ObP2GYuTZHjgmCxFM4-2" value="Money" style="shape=tape;whiteSpace=wrap;html=1;" parent="1" vertex="1">
          <mxGeometry x="60" y="350" width="120" height="100" as="geometry" />
        </mxCell>
        <mxCell id="Y4ObP2GYuTZHjgmCxFM4-3" value="" style="endArrow=classic;html=1;" parent="1" edge="1">
          <mxGeometry width="50" height="50" relative="1" as="geometry">
            <mxPoint x="190" y="400" as="sourcePoint" />
            <mxPoint x="270" y="400" as="targetPoint" />
          </mxGeometry>
        </mxCell>
        <mxCell id="Y4ObP2GYuTZHjgmCxFM4-4" value="Alright gang, here&#39;s the plan" style="whiteSpace=wrap;html=1;aspect=fixed;" parent="1" vertex="1">
          <mxGeometry x="250" y="170" width="80" height="80" as="geometry" />
        </mxCell>
        <mxCell id="I7VA4HnMsVqTE93xAYAc-1" value="BOTTOM TEXT" style="text;html=1;strokeColor=none;fillColor=none;align=center;verticalAlign=middle;rounded=0;fontFamily=Impact;fontSize=65;labelBorderColor=none;labelBackgroundColor=none;whiteSpace=wrap;" vertex="1" parent="1">
          <mxGeometry x="30" y="430" width="450" height="140" as="geometry" />
        </mxCell>
      </root>
    </mxGraphModel>
  </diagram>
</mxfile>
